<svg xmlns="http://www.w3.org/2000/svg" viewBox="0 0 949.49 752.41"><defs><style>.cls-1{fill:#333;stroke:#333;}.cls-1,.cls-2{stroke-miterlimit:10;stroke-width:5px;}.cls-2{fill:#f04923;stroke:#f04923;}</style></defs><g id="Layer_2" data-name="Layer 2"><g id="Layer_1-2" data-name="Layer 1"><polygon id="w" class="cls-1" points="946.29 294.29 786.48 733.35 711.31 705.99 712.23 703.47 709.68 704.66 559.57 382.76 426.19 749.21 351.02 721.85 351.83 719.62 349.77 720.58 152.31 297.12 224.81 263.31 389.42 616.33 510.61 283.37 520.43 287.25 531.01 291.44 577.01 309.64 622.06 327.47 749.56 600.9 871.11 266.93 946.29 294.29"/><path id="c" class="cls-2" d="M450.09,340.05H534C504,456.48,398.29,542.5,272.5,542.5S41,456.48,11,340.05A272.24,272.24,0,0,1,7.69,219.57C32.29,95.79,141.5,2.5,272.5,2.5S512.71,95.79,537.31,219.57H455C432,140.47,358.91,82.5,272.5,82.5S113,140.47,90,219.57a190.15,190.15,0,0,0,4.9,120.48C122.2,411.57,191.51,462.5,272.5,462.5S422.8,411.57,450.09,340.05Z"/><polygon id="path_-_clipped" data-name="path - clipped" class="cls-1" points="363.51 560.65 291.26 594.98 290.02 592.33 210.55 421.89 209.01 418.59 183.48 363.85 196.18 357.05 255.73 329.49 259.25 337.05 283.09 388.17 363.51 560.65"/></g></g></svg>